<svg xmlns="http://www.w3.org/2000/svg" width="476.37" height="130.15" viewBox="0 0 476.37 130.15">
  <title>Artboard 1</title>
  <g style="isolation: isolate">
    <g>
      <g>
        <path d="M126.52,117.62,118.1,119q.62-5.15,1.25-10.14.47-4.37.86-8.74t.7-7.49H107.34l-6.24,22.46q-3.43.47-8.11,1l-8.74,1-9.83,1.25q6.24-20.75,12.32-40.87L92,59.9q2.73-9.2,5.46-18.33T102.66,24Q105.15,15.6,107,8.58q10.61-.78,21.61-1.87t21.45-3q-.47,5-1,12.4t-1,16.15q-.47,8.74-.94,18.25t-.94,18.72q-.78,21.53-1.72,45.71-4.68.78-9.36,1.25ZM111.08,77.06c.42,0,1.17,0,2.26-.08l3.43-.16,3.35-.16a12.94,12.94,0,0,0,2.18-.23q0-.94.23-3.2t.47-5.15q.23-2.88.55-6.32t.62-6.71q.62-8,1.56-17.16l.94-13.57-2.34.16-3.59,13.42Z" style="fill: #333"/>
        <path d="M153.51,119.49q3.59-17.16,6.86-33.85,1.4-7,2.81-14.66t2.73-15.05q1.32-7.41,2.34-14.35t1.79-12.71a42.3,42.3,0,0,0-7.25-.31,21.54,21.54,0,0,1-7.25-.94q.15-2.49.16-5.77t.16-6.55q.15-3.59.31-7.64,4.05.31,8.11.47t8.11.16q8,0,15.37-.39t13.73-.94q6.32-.54,12.4-1.33L212.17,14q-.78,3.59-1.48,7.33t-1.33,6.4a45.26,45.26,0,0,1-6.94,1.33q-3.51.39-6.94,1-1.09,5.3-2.34,11.78T190.72,55.3q-1.17,6.94-2.26,14.12t-2.18,13.73q-2.5,15.44-4.68,32Z" style="fill: #333"/>
        <path d="M210,119.49q3.59-17.16,6.86-33.85,1.4-7,2.81-14.66t2.73-15.05q1.32-7.41,2.34-14.35t1.79-12.71a42.3,42.3,0,0,0-7.25-.31,21.54,21.54,0,0,1-7.25-.94q.15-2.49.16-5.77t.16-6.55q.15-3.59.31-7.64,4.05.31,8.11.47t8.11.16q8,0,15.37-.39T258,6.94q6.32-.54,12.4-1.33L268.64,14q-.78,3.59-1.48,7.33t-1.33,6.4a45.26,45.26,0,0,1-6.94,1.33q-3.51.39-6.94,1-1.09,5.3-2.34,11.78T247.19,55.3q-1.17,6.94-2.26,14.12t-2.18,13.73q-2.5,15.44-4.68,32Z" style="fill: #333"/>
        <path d="M298,117.62l-8.42,1.4q.62-5.15,1.25-10.14.47-4.37.86-8.74t.7-7.49H278.78l-6.24,22.46q-3.43.47-8.11,1l-8.74,1-9.83,1.25q6.24-20.75,12.32-40.87l5.23-17.63q2.73-9.2,5.46-18.33T274.1,24q2.49-8.42,4.37-15.44,10.61-.78,21.61-1.87t21.45-3q-.47,5-1,12.4t-1,16.15Q319,41,318.56,50.54t-.94,18.72q-.78,21.53-1.72,45.71-4.68.78-9.36,1.25ZM282.53,77.06c.42,0,1.17,0,2.26-.08l3.43-.16,3.35-.16a12.94,12.94,0,0,0,2.18-.23q0-.94.23-3.2t.47-5.15q.23-2.88.55-6.32t.62-6.71q.62-8,1.56-17.16l.94-13.57-2.34.16L292.2,37.91Z" style="fill: #333"/>
        <path d="M373.71,100.7A60.37,60.37,0,0,1,364,111.3a36.84,36.84,0,0,1-10.22,6.32,27.16,27.16,0,0,1-10,2,18,18,0,0,1-8.81-2.18,20.17,20.17,0,0,1-6.94-6.55,36.67,36.67,0,0,1-4.76-10.76,55.69,55.69,0,0,1-1.79-15,105.35,105.35,0,0,1,4.06-28.94A95,95,0,0,1,337,30.57a64,64,0,0,1,17.39-18.33A38.3,38.3,0,0,1,376.59,5.3a17.19,17.19,0,0,1,7.18,1.56,17.61,17.61,0,0,1,5.93,4.37,21.16,21.16,0,0,1,4,6.86,26.24,26.24,0,0,1,1.48,9v1.95A15.08,15.08,0,0,1,395,31.2l-20.44,5.46q-1.87-3.9-4.37-3.9T365,35.64a39.91,39.91,0,0,0-5.38,7.49,104.89,104.89,0,0,0-5.15,10.3q-2.5,5.7-4.37,11.47t-3,11a40.72,40.72,0,0,0-1.17,8.5q0,5,1.33,7a4,4,0,0,0,3.51,2,7.73,7.73,0,0,0,3.9-1.33,17.74,17.74,0,0,0,4.06-3.43,30.12,30.12,0,0,0,3.43-4.76,19.13,19.13,0,0,0,2.18-5.3l17.78,7.18A78.72,78.72,0,0,1,373.71,100.7Z" style="fill: #333"/>
        <path d="M381.12,119.49q4.68-21.84,8.74-42.43,1.56-8.89,3.28-18.41t3.2-18.88q1.48-9.36,2.65-18.17t1.79-16q3.59.31,8.11.55t8.42.55Q422,7,426.67,7q-.16.62-.47,2.34t-.78,4.13q-.47,2.42-1,5.38t-1.17,5.93l-2.81,15.44.94-.16q1.56-2.49,4.45-6.94t6-9.44q3.12-5,6.08-9.59t5-7.88q7.8-.62,15.6-1.4t15.6-2q-7.33,9.83-14.2,19.34-3,4.06-6,8.42t-6,8.58q-3,4.21-5.54,8.11t-4.6,7.18q3.43,15.76,8.11,30.42t9.52,30q-3.59-.15-7.33-.23t-7.33-.08q-4.53,0-8.74.08t-8.74.23q-1.4-10.14-3-21.29t-3-21.29l-2.81,3.28q-1.09,4.68-2.42,11.54t-2.57,13.26q-1.4,7.49-3,15.44Z" style="fill: #333"/>
      </g>
      <g style="mix-blend-mode: multiply">
        <g>
          <path d="M79.76,63.86A102.4,102.4,0,0,1,73.21,82,97.32,97.32,0,0,1,62.84,99.12a77.86,77.86,0,0,1-14,14.35,69.14,69.14,0,0,1-17.08,9.91,52.26,52.26,0,0,1-19.73,3.74,40.87,40.87,0,0,1-4.37-.23q-2.19-.23-4.37-.55,4.21-21.53,8.27-42,1.56-8.58,3.28-17.86t3.28-18.33q1.56-9,3-17.32t2.42-15q6.71-1.25,13.57-2.34a89.44,89.44,0,0,1,14-1.09,34.48,34.48,0,0,1,14.27,2.65A24.93,24.93,0,0,1,75,22.44a30.74,30.74,0,0,1,5.38,10.92A49.87,49.87,0,0,1,82.1,46.62,69.52,69.52,0,0,1,79.76,63.86ZM41.7,52.08q-1.87,8.42-3.74,17T34.21,87q-1.87,9.36-3.59,20.44a33.62,33.62,0,0,0,7.25-6.79,67.09,67.09,0,0,0,6.63-9.91A113.63,113.63,0,0,0,50.2,78.91q2.57-6.24,4.45-12.17a103.61,103.61,0,0,0,2.89-11.08,47,47,0,0,0,1-8.89q0-5.77-3.2-9T45.29,34.45Q43.57,43.66,41.7,52.08Z" style="fill: #f3dc3d"/>
          <path d="M118.92,124.62,110.5,126q.62-5.15,1.25-10.14.47-4.37.86-8.74t.7-7.49H99.73l-6.24,22.46q-3.43.47-8.11,1l-8.74,1-9.83,1.25q6.24-20.75,12.32-40.87L84.37,66.9q2.73-9.2,5.46-18.33T95.05,31q2.49-8.42,4.37-15.44Q110,14.8,121,13.71t21.45-3q-.47,5-1,12.4t-1,16.15Q140,48,139.51,57.54t-.94,18.72q-.78,21.53-1.72,45.71-4.68.78-9.36,1.25ZM103.48,84.06c.41,0,1.17,0,2.26-.08l3.43-.16,3.35-.16a13,13,0,0,0,2.18-.23q0-.94.23-3.2t.47-5.15q.23-2.88.55-6.32t.62-6.71q.62-8,1.56-17.16l.94-13.57-2.34.16-3.59,13.42Z" style="fill: #f3dc3d"/>
          <path d="M145.91,126.49q3.59-17.16,6.86-33.85,1.4-7,2.81-14.66t2.73-15.05q1.32-7.41,2.34-14.35t1.79-12.71a42.29,42.29,0,0,0-7.25-.31,21.53,21.53,0,0,1-7.25-.94q.15-2.49.16-5.77t.16-6.55q.15-3.59.31-7.64,4.05.31,8.11.47t8.11.16q8,0,15.37-.39t13.73-.94q6.32-.54,12.4-1.33L204.57,21q-.78,3.59-1.48,7.33t-1.33,6.4a45.28,45.28,0,0,1-6.94,1.33q-3.51.39-6.94,1-1.09,5.3-2.34,11.78T183.12,62.3q-1.17,6.94-2.26,14.12t-2.18,13.73q-2.5,15.44-4.68,32Z" style="fill: #f3dc3d"/>
          <path d="M202.38,126.49q3.59-17.16,6.86-33.85,1.4-7,2.81-14.66t2.73-15.05q1.32-7.41,2.34-14.35t1.79-12.71a42.29,42.29,0,0,0-7.25-.31,21.53,21.53,0,0,1-7.25-.94q.15-2.49.16-5.77t.16-6.55q.15-3.59.31-7.64,4.05.31,8.11.47t8.11.16q8,0,15.37-.39t13.73-.94q6.32-.54,12.4-1.33L261,21q-.78,3.59-1.48,7.33t-1.33,6.4a45.28,45.28,0,0,1-6.94,1.33q-3.51.39-6.94,1-1.09,5.3-2.34,11.78T239.59,62.3q-1.17,6.94-2.26,14.12t-2.18,13.73q-2.5,15.44-4.68,32Z" style="fill: #f3dc3d"/>
          <path d="M290.37,124.62l-8.42,1.4q.62-5.15,1.25-10.14.47-4.37.86-8.74t.7-7.49H271.18l-6.24,22.46q-3.43.47-8.11,1l-8.74,1-9.83,1.25q6.24-20.75,12.32-40.87l5.23-17.63q2.73-9.2,5.46-18.33T266.5,31q2.49-8.42,4.37-15.44,10.61-.78,21.61-1.87t21.45-3q-.47,5-1,12.4t-1,16.15Q311.43,48,311,57.54T310,76.26q-.78,21.53-1.72,45.71-4.68.78-9.36,1.25ZM274.92,84.06c.41,0,1.17,0,2.26-.08l3.43-.16,3.35-.16a13,13,0,0,0,2.18-.23q0-.94.23-3.2t.47-5.15q.23-2.88.55-6.32t.62-6.71q.62-8,1.56-17.16l.94-13.57-2.34.16L284.6,44.91Z" style="fill: #f3dc3d"/>
        </g>
      </g>
    </g>
  </g>
</svg>
